# xmcd CD database file
#
# Track frame offsets:
#	150
#	16078
#	32750
#	44597
#	61236
#	73841
#	92145
#	113231
#	127378
#	139965
#	156598
#	174297
#
# Disc length: 2441 seconds
#
# Revision: 2
# Processed by: cddbd v1.4b41PL1 Copyright (c) Steve Scherf et al.
# Submitted via: Feurio! 1.52 - http://www.feurio.com
#
DISCID=b009870c
DTITLE=Various Artist - Udo Jürgens für Tanja Fuhr
DYEAR=1900
DGENRE=
TTITLE0=Udo Jürgens - Ein Ehrenwertes Haus
TTITLE1=Udo Jürgens and Jenny - Liebe ohne Leiden
TTITLE2=Udo Jürgens - 17 Jahr Blondes Haar
TTITLE3=Udo Jürgens - Aber Bitte mit Sahne
TTITLE4=Udo Jürgens - DerTeufel hat Den Schnaps gemacht
TTITLE5=Udo Jürgens - Griechischer Wein
TTITLE6=Udo Jürgens - Ich war noch niemals in New York
TTITLE7=Udo Jürgens - Immer wieder geht die Sonne auf
TTITLE8=Udo Jürgens - Merci, Cherie
TTITLE9=Udo Jürgens - Mit 66 Jahren
TTITLE10=Udo Jürgens - Paris, einfach so nur zum Spaß
TTITLE11=Udo Jürgens - Tom und Jerry (Titellied)
EXTD=
EXTT0=
EXTT1=
EXTT2=
EXTT3=
EXTT4=
EXTT5=
EXTT6=
EXTT7=
EXTT8=
EXTT9=
EXTT10=
EXTT11=
PLAYORDER=
